<svg width="14" height="16" viewBox="0 0 14 16" fill="none" xmlns="http://www.w3.org/2000/svg">
<path d="M7.13281 0.921875C6.84635 0.921875 6.61198 1.01302 6.42969 1.19531C6.2526 1.3776 6.16406 1.61719 6.16406 1.91406V11.1797L6.26562 13.8906L6.83594 13.5625L4.375 10.7734L2.60938 9.02344C2.52083 8.9349 2.41927 8.86458 2.30469 8.8125C2.1901 8.76042 2.0625 8.73438 1.92188 8.73438C1.65625 8.73438 1.4349 8.82292 1.25781 9C1.08073 9.17708 0.992188 9.40104 0.992188 9.67188C0.992188 9.93229 1.09375 10.1667 1.29688 10.375L6.41406 15.5078C6.50781 15.6016 6.61719 15.6745 6.74219 15.7266C6.8724 15.7786 7.0026 15.8047 7.13281 15.8047C7.26823 15.8047 7.39844 15.7786 7.52344 15.7266C7.65365 15.6745 7.76562 15.6016 7.85938 15.5078L12.9766 10.375C13.1797 10.1667 13.2812 9.93229 13.2812 9.67188C13.2812 9.40104 13.1927 9.17708 13.0156 9C12.8385 8.82292 12.6172 8.73438 12.3516 8.73438C12.2109 8.73438 12.0807 8.76042 11.9609 8.8125C11.8464 8.86458 11.7448 8.9349 11.6562 9.02344L9.89062 10.7734L7.42188 13.5625L8 13.8906L8.10156 11.1797V1.91406C8.10156 1.61719 8.01042 1.3776 7.82812 1.19531C7.65104 1.01302 7.41927 0.921875 7.13281 0.921875Z" fill="#008AF5"/>
</svg>
