<svg width="23" height="23" viewBox="0 0 23 23" fill="none" xmlns="http://www.w3.org/2000/svg">
<circle cx="11.5" cy="11.5" r="11.5" fill="#DCDDDE"/>
<path d="M7.5625 16.4609C7.29688 16.4609 7.07031 16.3672 6.88281 16.1797C6.69531 15.9844 6.60156 15.7539 6.60156 15.4883C6.60156 15.2227 6.69531 14.9961 6.88281 14.8086L10.1406 11.5508L6.88281 8.30469C6.69531 8.10938 6.60156 7.88281 6.60156 7.625C6.60156 7.35156 6.69531 7.125 6.88281 6.94531C7.07031 6.75781 7.29688 6.66406 7.5625 6.66406C7.82031 6.66406 8.04688 6.75391 8.24219 6.93359L11.5117 10.1914L14.8047 6.92188C14.9922 6.73438 15.2148 6.64062 15.4727 6.64062C15.7383 6.64062 15.9648 6.73438 16.1523 6.92188C16.3398 7.10938 16.4336 7.33594 16.4336 7.60156C16.4336 7.86719 16.3398 8.09766 16.1523 8.29297L12.8828 11.5508L16.1406 14.7969C16.3281 14.9688 16.4219 15.1992 16.4219 15.4883C16.4219 15.7539 16.3281 15.9844 16.1406 16.1797C15.9531 16.3672 15.7227 16.4609 15.4492 16.4609C15.168 16.4609 14.9375 16.3672 14.7578 16.1797L11.5117 12.9219L8.27734 16.1797C8.08203 16.3672 7.84375 16.4609 7.5625 16.4609Z" fill="#888D9F"/>
</svg>
