<svg width="178" height="52" viewBox="0 0 178 52" fill="none" xmlns="http://www.w3.org/2000/svg">
<path d="M28.2784 39.525C28.8486 39.525 29.3109 39.9855 29.3109 40.5535V48.9358C29.3109 49.5038 28.8486 49.9643 28.2784 49.9643H23.023C18.5419 49.9643 15.0486 48.8843 12.543 46.7245C10.0375 44.5167 8.7847 40.9409 8.7847 35.9973V21.043C8.7847 20.475 8.32244 20.0145 7.7522 20.0145H1.80497C1.23473 20.0145 0.772461 19.554 0.772461 18.986V10.4052C0.772461 10.0661 1.0484 9.79127 1.38879 9.79127C5.47344 9.79127 8.7847 6.49287 8.7847 2.42408V0.753175C8.7847 0.337208 9.12323 0 9.54082 0H20.1113C20.6815 0 21.1438 0.460473 21.1438 1.02849V8.76277C21.1438 9.33079 21.6061 9.79127 22.1763 9.79127H28.2061C28.7764 9.79127 29.2386 10.2517 29.2386 10.8198V18.986C29.2386 19.554 28.7764 20.0145 28.2061 20.0145H22.1763C21.6061 20.0145 21.1438 20.475 21.1438 21.043V36.1413C21.1438 37.3412 21.4329 38.2051 22.0111 38.7331C22.5893 39.2611 23.553 39.525 24.9021 39.525H28.2784Z" fill="#008AF5"/>
<path d="M45.3465 50.5402C43.1783 50.5402 41.3955 49.9163 39.9981 48.6684C38.649 47.3725 37.9744 45.7886 37.9744 43.9167C37.9744 41.9969 38.649 40.389 39.9981 39.0931C41.3955 37.7972 43.1783 37.1492 45.3465 37.1492C47.4666 37.1492 49.2012 37.7972 50.5504 39.0931C51.9477 40.389 52.6463 41.9969 52.6463 43.9167C52.6463 45.7886 51.9477 47.3725 50.5504 48.6684C49.2012 49.9163 47.4666 50.5402 45.3465 50.5402ZM45.3465 21.2384C43.1783 21.2384 41.3955 20.6145 39.9981 19.3666C38.649 18.0706 37.9744 16.4868 37.9744 14.6149C37.9744 12.695 38.649 11.0872 39.9981 9.79127C41.3955 8.49536 43.1783 7.84741 45.3465 7.84741C47.4666 7.84741 49.2012 8.49536 50.5504 9.79127C51.9477 11.0872 52.6463 12.695 52.6463 14.6149C52.6463 16.4868 51.9477 18.0706 50.5504 19.3666C49.2012 20.6145 47.4666 21.2384 45.3465 21.2384Z" fill="#008AF5"/>
<path d="M114.933 9.3593C119.944 9.3593 123.919 10.8712 126.859 13.895C129.846 16.9187 131.34 21.1184 131.34 26.494V48.9358C131.34 49.5038 130.877 49.9643 130.307 49.9643H120.085C119.515 49.9643 119.053 49.5038 119.053 48.9358V28.1499C119.053 25.5581 118.354 23.5662 116.957 22.1743C115.608 20.7344 113.729 20.0145 111.319 20.0145C108.91 20.0145 107.007 20.7344 105.61 22.1743C104.26 23.5662 103.586 25.5581 103.586 28.1499V48.9358C103.586 49.5038 103.124 49.9643 102.553 49.9643H92.3316C91.7613 49.9643 91.2991 49.5038 91.2991 48.9358V28.1499C91.2991 25.5581 90.6004 23.5662 89.2031 22.1743C87.854 20.7344 85.9748 20.0145 83.5656 20.0145C81.1564 20.0145 79.2532 20.7344 77.8559 22.1743C76.5067 23.5662 75.8321 25.5581 75.8321 28.1499V48.9358C75.8321 49.5038 75.3699 49.9643 74.7996 49.9643H64.5055C63.9353 49.9643 63.473 49.5038 63.473 48.9358V10.8198C63.473 10.2517 63.9353 9.79127 64.5055 9.79127H74.7996C75.3699 9.79127 75.8321 10.2517 75.8321 10.8198V14.8309C77.0849 13.151 78.7231 11.8311 80.7469 10.8712C82.7706 9.86326 85.0593 9.3593 87.613 9.3593C90.6486 9.3593 93.3469 10.0073 95.7079 11.3032C98.117 12.5991 99.9962 14.4469 101.345 16.8467C102.743 14.6389 104.646 12.839 107.055 11.4471C109.464 10.0552 112.09 9.3593 114.933 9.3593Z" fill="#008AF5"/>
<path d="M178 29.2298C178 30.3817 177.928 31.5816 177.783 32.8295H149.813C150.006 35.3254 150.801 37.2452 152.198 38.5891C153.643 39.885 155.402 40.533 157.474 40.533C160.316 40.533 162.36 39.4322 163.606 37.2307C163.804 36.8816 164.164 36.6453 164.566 36.6453H175.732C176.406 36.6453 176.9 37.2781 176.687 37.9146C175.971 40.0523 174.867 42.005 173.375 43.7727C171.64 45.8846 169.448 47.5404 166.797 48.7404C164.147 49.9403 161.184 50.5402 157.908 50.5402C153.957 50.5402 150.439 49.7003 147.355 48.0204C144.272 46.3405 141.862 43.9407 140.128 40.8209C138.393 37.7012 137.526 34.0535 137.526 29.8778C137.526 25.7021 138.369 22.0543 140.056 18.9346C141.79 15.8148 144.199 13.415 147.283 11.7351C150.367 10.0552 153.908 9.21531 157.908 9.21531C161.81 9.21531 165.28 10.0312 168.315 11.6631C171.351 13.295 173.712 15.6228 175.398 18.6466C177.133 21.6704 178 25.1981 178 29.2298ZM165.352 25.9901C165.352 23.8782 164.629 22.1983 163.184 20.9504C161.738 19.7025 159.931 19.0786 157.763 19.0786C155.691 19.0786 153.932 19.6785 152.487 20.8784C151.09 22.0784 150.222 23.7822 149.885 25.9901H165.352Z" fill="#008AF5"/>
</svg>
