<svg width="64" height="61" viewBox="0 0 64 61" fill="none" xmlns="http://www.w3.org/2000/svg">
<g filter="url(#filter0_iiii_4_2966)">
<path fill-rule="evenodd" clip-rule="evenodd" d="M60.4282 26.5521C62.2007 27.921 64 29.3106 64 30.9999C64 32.6894 62.2008 34.0791 60.4284 35.448C58.9678 36.5761 57.5254 37.6902 57.1235 38.9463C56.6985 40.2732 57.2331 42.1016 57.7655 43.9226C58.3893 46.0561 59.01 48.1793 58.0809 49.4734C57.1388 50.7853 54.9326 50.8406 52.7285 50.8959C50.8633 50.9426 48.9996 50.9894 47.9042 51.7974C46.8265 52.5924 46.2163 54.3559 45.6026 56.1292C44.869 58.2492 44.1306 60.3832 42.5827 60.8928C41.1142 61.376 39.343 60.1408 37.5476 58.8887C35.9897 57.8022 34.4135 56.703 33.0011 56.703C31.5887 56.703 30.0125 57.8022 28.4545 58.8886C26.6589 60.1407 24.8876 61.376 23.4189 60.8926C21.8708 60.3829 21.1323 58.2488 20.3986 56.1286C19.7851 54.3554 19.1749 52.5921 18.0973 51.797C17.0021 50.9895 15.1388 50.9427 13.274 50.896C11.0695 50.8407 8.86294 50.7853 7.92076 49.473C6.99177 48.179 7.61248 46.0559 8.23621 43.9225C8.7686 42.1014 9.3032 40.2729 8.87815 38.946C8.47552 37.69 7.03296 36.576 5.57223 35.448C3.7995 34.079 2 32.6894 2 31.0002C2 29.3111 3.79924 27.9215 5.57175 26.5525C7.03253 25.4243 8.47514 24.3101 8.87752 23.0539C9.30257 21.727 8.76795 19.8984 8.23554 18.0773C7.61179 15.9439 6.99107 13.8207 7.92013 12.5268C8.86227 11.2148 11.0685 11.1595 13.2728 11.1042C15.1379 11.0575 17.0015 11.0107 18.0968 10.2028C19.1744 9.40772 19.7847 7.64425 20.3983 5.87104C21.1319 3.75091 21.8704 1.61685 23.4184 1.10742C24.8869 0.623984 26.6582 1.85924 28.4535 3.11134C30.0114 4.19779 31.5874 5.29693 32.9997 5.29693C34.4119 5.29693 35.988 4.19782 37.546 3.11136C39.3416 1.8592 41.113 0.623847 42.5817 1.1073C44.1297 1.61698 44.8681 3.75095 45.6018 5.871C46.2154 7.64425 46.8256 9.40776 47.9034 10.2029C48.9985 11.0105 50.8618 11.0572 52.7266 11.104C54.9311 11.1593 57.1378 11.2146 58.08 12.5269C59.0091 13.8209 58.3884 15.9441 57.7646 18.0775C57.2321 19.8985 56.6975 21.727 57.1226 23.0539C57.525 24.31 58.9675 25.424 60.4282 26.5521ZM33 47C41.8366 47 49 39.8366 49 31C49 22.1634 41.8366 15 33 15C24.1634 15 17 22.1634 17 31C17 39.8366 24.1634 47 33 47Z" fill="#8456FF"/>
<path d="M40.3063 27.5278H37.1867C36.829 27.5278 36.4804 27.4099 36.191 27.1909C35.9016 26.9719 35.6861 26.6631 35.5756 26.3088L34.6116 23.2189C34.501 22.8646 34.2856 22.5559 33.9961 22.3369C33.7067 22.1179 33.3582 22 33.0005 22C32.6427 22 32.2942 22.1179 32.0048 22.3369C31.7154 22.5559 31.4999 22.8646 31.3894 23.2189L30.4254 26.3088C30.3149 26.6631 30.0995 26.9719 29.81 27.1909C29.5206 27.4098 29.1721 27.5278 28.8143 27.5278H25.6947C25.3369 27.5276 24.9881 27.6455 24.6986 27.8645C24.409 28.0835 24.1935 28.3923 24.0829 28.7468C23.9723 29.1013 23.9724 29.4831 24.0831 29.8375C24.1938 30.1919 24.4094 30.5007 24.699 30.7196L27.2229 32.6294C27.5123 32.8485 27.7276 33.1572 27.8382 33.5115C27.9487 33.8658 27.9487 34.2475 27.8381 34.6018L26.8741 37.6916C26.7638 38.0458 26.764 38.4274 26.8746 38.7815C26.9853 39.1357 27.2007 39.4443 27.4901 39.6631C27.7794 39.882 28.1278 39.9999 28.4855 39.9999C28.8431 39.9999 29.1915 39.8821 29.4809 39.6632L32.0051 37.7538C32.2945 37.5348 32.6431 37.4168 33.0008 37.4168C33.3586 37.4168 33.7072 37.5348 33.9965 37.7538L36.52 39.6632C36.8095 39.8822 37.158 40 37.5157 40C37.8734 40 38.2219 39.882 38.5113 39.663C38.8007 39.444 39.0161 39.1353 39.1266 38.781C39.2372 38.4267 39.2372 38.0451 39.1267 37.6908L38.1627 34.601C38.0522 34.2467 38.0522 33.865 38.1628 33.5107C38.2734 33.1564 38.4888 32.8477 38.7782 32.6287L41.302 30.7188C41.5913 30.4998 41.8067 30.1911 41.9172 29.8368C42.0276 29.4825 42.0276 29.1009 41.9171 28.7467C41.8065 28.3924 41.5912 28.0837 41.3018 27.8647C41.0125 27.6458 40.664 27.5278 40.3063 27.5278Z" fill="#8456FF"/>
</g>
<g filter="url(#filter1_f_4_2966)">
<path fill-rule="evenodd" clip-rule="evenodd" d="M55.8314 26.571C57.4038 27.7802 59 29.0077 59 30.4999C59 31.9923 57.4039 33.2199 55.8316 34.4291C54.5359 35.4256 53.2564 36.4097 52.8999 37.5192C52.5229 38.6913 52.9971 40.3065 53.4694 41.915C54.0227 43.7996 54.5734 45.6751 53.7492 46.8181C52.9134 47.977 50.9564 48.0259 49.0011 48.0747C47.3465 48.116 45.6932 48.1573 44.7215 48.871C43.7655 49.5733 43.2241 51.1311 42.6797 52.6975C42.0289 54.5702 41.3739 56.4552 40.0008 56.9053C38.698 57.3322 37.1268 56.2411 35.5342 55.135C34.1521 54.1753 32.7539 53.2043 31.5009 53.2043C30.248 53.2043 28.8498 54.1752 27.4677 55.135C25.8749 56.241 24.3035 57.3321 23.0006 56.9052C21.6273 56.4549 20.9722 54.5697 20.3214 52.697C19.7771 51.1306 19.2358 49.573 18.2798 48.8707C17.3083 48.1574 15.6554 48.1161 14.0011 48.0748C12.0455 48.0259 10.0881 47.977 9.25228 46.8178C8.42818 45.6748 8.97881 43.7994 9.53212 41.9148C10.0044 40.3063 10.4786 38.6911 10.1016 37.519C9.74441 36.4095 8.46473 35.4255 7.16892 34.4291C5.59633 33.2198 4 31.9923 4 30.5001C4 29.0081 5.5961 27.7806 7.16849 26.5714C8.46434 25.5748 9.74408 24.5906 10.101 23.4809C10.4781 22.3088 10.0038 20.6936 9.53153 19.085C8.9782 17.2004 8.42756 15.325 9.25172 14.182C10.0875 13.023 12.0447 12.9742 14.0001 12.9254C15.6546 12.8841 17.3078 12.8428 18.2794 12.1291C19.2354 11.4268 19.7767 9.86909 20.321 8.30275C20.9719 6.42997 21.627 4.54488 23.0002 4.09489C24.3029 3.66785 25.8742 4.759 27.4668 5.86502C28.8488 6.82472 30.2469 7.79562 31.4997 7.79562C32.7525 7.79562 34.1507 6.82474 35.5327 5.86503C37.1256 4.75896 38.697 3.66773 39.9999 4.09478C41.3731 4.545 42.0282 6.43001 42.679 8.30272C43.2233 9.86909 43.7647 11.4269 44.7207 12.1292C45.6922 12.8426 47.3451 12.8839 48.9994 12.9252C50.955 12.974 52.9125 13.0229 53.7484 14.1821C54.5726 15.3252 54.0219 17.2006 53.4686 19.0851C52.9963 20.6937 52.522 22.3089 52.8991 23.4809C53.2561 24.5905 54.5357 25.5746 55.8314 26.571ZM31.5 44.6333C39.3389 44.6333 45.6935 38.3056 45.6935 30.5C45.6935 22.6944 39.3389 16.3667 31.5 16.3667C23.6611 16.3667 17.3065 22.6944 17.3065 30.5C17.3065 38.3056 23.6611 44.6333 31.5 44.6333Z" fill="url(#paint0_linear_4_2966)" fill-opacity="0.9"/>
<path d="M37.9814 27.4329H35.214C34.8967 27.4329 34.5875 27.3287 34.3307 27.1353C34.074 26.9418 33.8829 26.6691 33.7848 26.3561L32.9296 23.6267C32.8315 23.3137 32.6404 23.041 32.3837 22.8476C32.1269 22.6542 31.8177 22.55 31.5004 22.55C31.1831 22.55 30.8739 22.6542 30.6171 22.8476C30.3604 23.041 30.1693 23.3137 30.0712 23.6267L29.2161 26.3561C29.118 26.6691 28.9269 26.9418 28.6702 27.1353C28.4135 27.3287 28.1043 27.4329 27.7869 27.4329H25.0195C24.7021 27.4327 24.3927 27.5368 24.1358 27.7303C23.8789 27.9237 23.6877 28.1966 23.5897 28.5097C23.4916 28.8228 23.4916 29.16 23.5898 29.4731C23.688 29.7862 23.8793 30.059 24.1362 30.2523L26.3751 31.9393C26.6318 32.1328 26.8229 32.4056 26.921 32.7185C27.019 33.0315 27.019 33.3686 26.9209 33.6816L26.0657 36.4109C25.9679 36.7238 25.9681 37.0608 26.0662 37.3737C26.1644 37.6865 26.3555 37.9591 26.6121 38.1524C26.8688 38.3457 27.1779 38.4499 27.4952 38.4499C27.8124 38.4499 28.1215 38.3458 28.3782 38.1525L30.6175 36.4659C30.8742 36.2724 31.1834 36.1682 31.5007 36.1682C31.8181 36.1682 32.1273 36.2724 32.384 36.4659L34.6226 38.1525C34.8794 38.3459 35.1885 38.45 35.5059 38.45C35.8232 38.45 36.1323 38.3458 36.3891 38.1523C36.6458 37.9589 36.8368 37.6862 36.9349 37.3732C37.033 37.0603 37.033 36.7231 36.935 36.4102L36.0798 33.6809C35.9818 33.3679 35.9818 33.0308 36.0799 32.7178C36.178 32.4048 36.3691 32.1321 36.6258 31.9387L38.8647 30.2516C39.1213 30.0582 39.3124 29.7854 39.4104 29.4725C39.5084 29.1596 39.5084 28.8225 39.4103 28.5096C39.3122 28.1966 39.1212 27.9239 38.8645 27.7305C38.6078 27.5371 38.2987 27.4329 37.9814 27.4329Z" fill="url(#paint1_linear_4_2966)" fill-opacity="0.9"/>
</g>
<defs>
<filter id="filter0_iiii_4_2966" x="-1.50365" y="-0.751825" width="67.2555" height="63.3635" filterUnits="userSpaceOnUse" color-interpolation-filters="sRGB">
<feFlood flood-opacity="0" result="BackgroundImageFix"/>
<feBlend mode="normal" in="SourceGraphic" in2="BackgroundImageFix" result="shape"/>
<feColorMatrix in="SourceAlpha" type="matrix" values="0 0 0 0 0 0 0 0 0 0 0 0 0 0 0 0 0 0 127 0" result="hardAlpha"/>
<feOffset dx="-3.50365" dy="-1.75182"/>
<feGaussianBlur stdDeviation="1.75182"/>
<feComposite in2="hardAlpha" operator="arithmetic" k2="-1" k3="1"/>
<feColorMatrix type="matrix" values="0 0 0 0 0 0 0 0 0 0 0 0 0 0 0 0 0 0 0.3 0"/>
<feBlend mode="normal" in2="shape" result="effect1_innerShadow_4_2966"/>
<feColorMatrix in="SourceAlpha" type="matrix" values="0 0 0 0 0 0 0 0 0 0 0 0 0 0 0 0 0 0 127 0" result="hardAlpha"/>
<feOffset dx="-0.420438" dy="-0.210219"/>
<feGaussianBlur stdDeviation="0.525548"/>
<feComposite in2="hardAlpha" operator="arithmetic" k2="-1" k3="1"/>
<feColorMatrix type="matrix" values="0 0 0 0 0 0 0 0 0 0 0 0 0 0 0 0 0 0 0.35 0"/>
<feBlend mode="normal" in2="effect1_innerShadow_4_2966" result="effect2_innerShadow_4_2966"/>
<feColorMatrix in="SourceAlpha" type="matrix" values="0 0 0 0 0 0 0 0 0 0 0 0 0 0 0 0 0 0 127 0" result="hardAlpha"/>
<feOffset dx="1.75182" dy="1.61168"/>
<feGaussianBlur stdDeviation="1.75182"/>
<feComposite in2="hardAlpha" operator="arithmetic" k2="-1" k3="1"/>
<feColorMatrix type="matrix" values="0 0 0 0 1 0 0 0 0 1 0 0 0 0 1 0 0 0 0.5 0"/>
<feBlend mode="normal" in2="effect2_innerShadow_4_2966" result="effect3_innerShadow_4_2966"/>
<feColorMatrix in="SourceAlpha" type="matrix" values="0 0 0 0 0 0 0 0 0 0 0 0 0 0 0 0 0 0 127 0" result="hardAlpha"/>
<feOffset dx="0.280292" dy="0.280292"/>
<feGaussianBlur stdDeviation="0.525548"/>
<feComposite in2="hardAlpha" operator="arithmetic" k2="-1" k3="1"/>
<feColorMatrix type="matrix" values="0 0 0 0 1 0 0 0 0 1 0 0 0 0 1 0 0 0 0.7 0"/>
<feBlend mode="normal" in2="effect3_innerShadow_4_2966" result="effect4_innerShadow_4_2966"/>
</filter>
<filter id="filter1_f_4_2966" x="0.49635" y="0.49635" width="62.0073" height="60.0073" filterUnits="userSpaceOnUse" color-interpolation-filters="sRGB">
<feFlood flood-opacity="0" result="BackgroundImageFix"/>
<feBlend mode="normal" in="SourceGraphic" in2="BackgroundImageFix" result="shape"/>
<feGaussianBlur stdDeviation="1.75182" result="effect1_foregroundBlur_4_2966"/>
</filter>
<linearGradient id="paint0_linear_4_2966" x1="5.6521" y1="11.3972" x2="32.8123" y2="33.2091" gradientUnits="userSpaceOnUse">
<stop stop-color="white"/>
<stop offset="1" stop-color="white" stop-opacity="0"/>
</linearGradient>
<linearGradient id="paint1_linear_4_2966" x1="5.6521" y1="11.3972" x2="32.8123" y2="33.2091" gradientUnits="userSpaceOnUse">
<stop stop-color="white"/>
<stop offset="1" stop-color="white" stop-opacity="0"/>
</linearGradient>
</defs>
</svg>
