<svg width="128" height="128" viewBox="0 0 128 128" fill="none" xmlns="http://www.w3.org/2000/svg">
<path d="M87.0376 93.2589L84.3843 92.9975C84.3843 92.9975 89.707 38.4269 89.7523 37.9335C90.0883 32.5149 93.0349 28.4215 96.3603 28.6402C99.7283 28.8509 102.104 33.2589 101.771 38.6135L101.16 92.9682L99.7736 92.9522L87.0509 93.1122C87.0483 93.1602 87.0429 93.2082 87.0376 93.2589Z" fill="url(#paint0_radial_4_3005)"/>
<path d="M76.4639 19.8505C77.2852 17.6879 78.6932 16.3572 80.4292 16.1012C82.1466 15.8372 83.9012 16.7039 85.3172 18.5305C86.5626 20.1385 86.8639 22.1412 87.7759 24.6185L101.333 69.3332L100.307 73.2852L84.7359 80.7759C84.7546 80.9332 84.7706 81.0772 84.7892 81.2372L82.1412 81.5385C82.1412 81.5385 75.9652 27.0532 75.9066 26.5652C75.5412 24.1385 75.7412 21.7519 76.4639 19.8505Z" fill="url(#paint1_radial_4_3005)"/>
<path d="M51.1543 10.1385C51.7677 9.03445 52.5703 8.16779 53.781 7.69312C55.7437 6.92245 57.4743 7.77579 58.6237 8.61045C59.8103 9.47179 60.7917 10.5945 61.765 11.6851C63.3597 13.4745 64.8397 15.3705 66.2317 17.3225C66.285 17.3971 100.597 70.7998 100.597 70.7998L99.4743 71.5225L98.3517 72.2425L97.3517 70.6851L68.8583 59.4611L67.6157 59.9438C67.6157 59.9438 51.421 18.2211 51.293 17.8931C49.733 14.0878 50.357 11.5758 51.1543 10.1385Z" fill="url(#paint2_radial_4_3005)"/>
<path d="M57.971 50.496C56.467 49.808 54.7656 49.736 53.2136 50.304C48.163 52.152 36.923 56.2614 36.8083 56.304C31.643 57.976 28.4056 61.8 29.443 65.0134C29.963 66.6267 31.4216 67.7707 33.5576 68.2587C34.6776 68.5147 35.8403 68.5627 36.9843 68.4747C38.1603 68.384 39.323 68.144 40.4456 67.7814C40.4456 67.7814 48.1523 65.8187 50.7203 65.1627C53.051 64.568 55.1656 65.8294 56.6776 67.7014C58.419 69.8587 61.251 74.5734 62.091 77.2587C62.763 79.4027 62.6776 81.4454 61.499 83.3574C60.9123 84.312 58.9523 86.6747 57.5656 87.944C55.8536 89.5147 53.6856 89.9627 51.435 89.384C49.7256 88.9467 46.219 87.3974 44.4403 86.4214C42.563 85.392 41.187 83.6534 41.187 81.5094V78.72C41.187 73.368 36.7096 69.0614 31.2936 69.344C28.8563 69.472 27.275 71.5867 26.9763 74.0107C26.3923 78.7494 25.9603 88.576 26.9763 94.872C28.1976 102.411 54.5816 117.333 60.3896 117.333H83.1763C93.2056 117.333 101.334 109.205 101.334 99.176C101.334 91.7174 101.334 69.3334 101.334 69.3334C101.334 69.3334 72.8963 57.328 57.971 50.496Z" fill="url(#paint3_radial_4_3005)"/>
<g opacity="0.87">
<path opacity="0.091" d="M31.2932 59.6794C30.5786 60.4288 30.0479 61.2234 29.7332 62.0394C29.4452 62.5914 29.3786 63.3194 29.6212 64.0741C30.1892 65.6128 31.9092 67.1194 35.4506 67.6634C36.4506 67.8021 37.5866 67.8608 38.8639 67.8154C39.4212 67.8101 40.0719 67.7674 40.7919 67.6928C41.9599 67.3941 46.9892 66.1141 49.7332 65.4154C50.1466 65.3114 50.5146 65.2208 50.8186 65.1514C52.8666 64.6741 54.7412 65.6154 56.1812 67.1381C56.3679 67.3354 56.5466 67.5434 56.7199 67.7594C57.7919 69.1034 60.5706 73.0314 61.8506 76.7994C62.3439 78.2448 62.6559 79.7274 62.5146 81.2474C62.5492 81.1594 63.0799 79.2448 63.0612 78.1781C63.0292 76.4501 62.9759 75.1141 62.8906 74.0634C62.7252 72.0794 62.4666 70.9674 62.0079 69.5701C61.1279 66.8928 58.3972 62.3381 56.7066 60.2448C55.1946 58.3728 53.0799 57.1114 50.7492 57.7061C48.2292 58.3488 40.5919 60.2874 40.2879 60.3514C39.7786 60.5088 39.2826 60.6394 38.8159 60.7381C38.1386 60.8794 37.4532 60.9701 36.7626 61.0074C36.4692 61.0234 36.1732 61.0314 35.8799 61.0288C35.0026 61.0154 34.1412 60.8981 33.3172 60.6608C32.5199 60.4288 31.8639 60.0794 31.2932 59.6794Z" fill="#E2C59F"/>
<path opacity="0.182" d="M31.1121 59.9511C30.4401 60.7111 29.9601 61.5164 29.7041 62.3351C29.4694 62.9004 29.4508 63.6124 29.7228 64.3458C30.4454 65.9058 32.2321 67.2551 35.6294 67.7404C36.6401 67.8551 37.7681 67.8844 39.0241 67.8124C39.5254 67.8071 40.1814 67.7511 40.9334 67.6578C42.2294 67.3271 47.1868 66.0658 49.8321 65.3911C50.2401 65.2871 50.6081 65.2018 50.9174 65.1378C52.9521 64.7084 54.8108 65.6684 56.2321 67.1964C56.4134 67.3911 56.5921 67.5991 56.7654 67.8151C57.9041 69.2524 60.6294 73.1858 61.8588 76.8231C62.3148 78.1618 62.6481 79.5831 62.5148 81.2524C62.5574 81.1191 63.0428 79.3111 63.0294 78.2604C63.0054 76.5911 62.9494 75.2711 62.8508 74.2498C62.6694 72.3804 62.3921 71.2604 61.9228 69.8818C61.0054 67.2151 58.3734 62.8178 56.7334 60.7858C55.2214 58.9138 53.1068 57.6524 50.7761 58.2471C48.3041 58.8764 40.7388 60.7884 40.1281 60.9191C39.5814 61.0791 39.0721 61.2125 38.6294 61.3005C37.9414 61.4365 37.2401 61.5138 36.5414 61.5404C36.2428 61.5511 35.9441 61.5511 35.6454 61.5404C34.7494 61.5058 33.8854 61.3431 33.0774 61.0631C32.2908 60.7858 31.6508 60.3884 31.1121 59.9511Z" fill="#E1C29C"/>
<path opacity="0.273" d="M30.9303 60.2262C30.3037 60.9995 29.8743 61.8128 29.677 62.6315C29.493 63.2102 29.5223 63.9088 29.8263 64.6155C30.7037 66.1968 32.5597 67.3915 35.8077 67.8182C36.8263 67.9088 37.9517 67.9115 39.181 67.8075C39.6263 67.8022 40.2877 67.7328 41.0717 67.6208C42.493 67.2582 47.3783 66.0155 49.9303 65.3648C50.333 65.2608 50.701 65.1835 51.013 65.1222C53.0343 64.7408 54.8743 65.7168 56.2797 67.2502C56.4583 67.4448 56.6343 67.6502 56.805 67.8688C58.0103 69.4022 60.685 73.3355 61.8637 76.8422C62.2823 78.0768 62.6343 79.4342 62.5143 81.2502C62.5623 81.0715 63.005 79.3702 62.997 78.3382C62.981 76.7302 62.9223 75.4235 62.813 74.4342C62.6183 72.6768 62.3223 71.5542 61.837 70.1915C60.8823 67.5328 58.349 63.2955 56.7597 61.3248C55.2477 59.4528 53.133 58.1915 50.8023 58.7862C48.3783 59.4048 40.8823 61.2902 39.9677 61.4848C39.3863 61.6475 38.8637 61.7808 38.4423 61.8582C37.741 61.9888 37.029 62.0528 36.3197 62.0662C36.0157 62.0715 35.7117 62.0662 35.4103 62.0475C34.4957 61.9888 33.629 61.7835 32.8343 61.4582C32.0583 61.1408 31.4397 60.7008 30.9303 60.2262Z" fill="#E1C09A"/>
<path opacity="0.364" d="M30.7501 60.5005C30.1687 61.2872 29.7874 62.1085 29.6487 62.9299C29.5154 63.5219 29.5954 64.2072 29.9287 64.8872C30.9607 66.4899 32.8834 67.5299 35.9874 67.8952C37.0167 67.9619 38.1341 67.9352 39.3421 67.8045C39.7314 67.7992 40.3981 67.7165 41.2141 67.5859C42.7607 67.1912 47.5741 65.9645 50.0327 65.3379C50.4301 65.2365 50.7954 65.1619 51.1154 65.1085C53.1207 64.7725 54.9447 65.7672 56.3341 67.3059C56.5101 67.5005 56.6834 67.7059 56.8514 67.9219C58.1207 69.5512 60.7474 73.4845 61.8727 76.8605C62.2541 77.9885 62.6274 79.2845 62.5154 81.2472C62.5714 81.0232 62.9687 79.4285 62.9661 78.4152C62.9581 76.8659 62.8967 75.5752 62.7741 74.6179C62.5634 72.9725 62.2487 71.8472 61.7501 70.5005C60.7554 67.8499 58.3234 63.7699 56.7821 61.8659C55.2701 59.9939 53.1554 58.7325 50.8247 59.3272C48.4487 59.9325 41.0221 61.7939 39.8034 62.0552C39.1847 62.2205 38.6487 62.3539 38.2514 62.4232C37.5394 62.5485 36.8141 62.6019 36.0914 62.5992C35.7821 62.5992 35.4754 62.5859 35.1687 62.5592C34.2354 62.4792 33.3661 62.2312 32.5874 61.8605C31.8301 61.4979 31.2274 61.0125 30.7501 60.5005Z" fill="#E0BE98"/>
<path opacity="0.455" d="M30.5687 60.7734C30.03 61.5734 29.6993 62.4027 29.6193 63.2267C29.5367 63.832 29.6647 64.5014 30.03 65.1574C31.2193 66.7814 33.206 67.664 36.166 67.9734C37.2033 68.0134 38.3153 67.9627 39.4993 67.8C39.8327 67.7974 40.5047 67.6987 41.3527 67.5494C43.0247 67.1227 47.766 65.9147 50.1313 65.312C50.5233 65.2107 50.8887 65.1414 51.2113 65.0934C53.2033 64.8027 55.0087 65.816 56.382 67.36C56.5527 67.552 56.726 67.7574 56.894 67.976C58.23 69.7014 60.798 73.64 61.8807 76.88C62.222 77.904 62.6167 79.136 62.518 81.2454C62.5793 80.976 62.934 79.488 62.9367 78.4907C62.934 77.0027 62.8727 75.7254 62.7393 74.7974C62.518 73.264 62.1793 72.136 61.6673 70.8054C60.6353 68.1627 58.2993 64.2427 56.8113 62.4C55.2993 60.528 53.1847 59.2667 50.854 59.8614C48.526 60.4534 41.1713 62.2907 39.646 62.616C38.9927 62.784 38.4433 62.9174 38.0673 62.9787C37.342 63.0987 36.606 63.1387 35.8727 63.1254C35.5607 63.12 35.246 63.1014 34.9367 63.0667C33.9847 62.9654 33.1153 62.672 32.3473 62.256C31.6007 61.8534 31.0167 61.3254 30.5687 60.7734Z" fill="#DFBC96"/>
<path opacity="0.545" d="M30.3869 61.047C29.8936 61.8577 29.6109 62.6977 29.5896 63.5243C29.5576 64.143 29.7363 64.799 30.1283 65.4283C31.4723 67.0737 33.5256 67.8017 36.3416 68.0497C37.3869 68.0657 38.4962 67.9883 39.6562 67.7963C39.9336 67.7937 40.6082 67.6843 41.4909 67.5137C43.2909 67.055 47.9602 65.8657 50.2296 65.287C50.6189 65.1883 50.9816 65.1217 51.3096 65.0817C53.2856 64.8363 55.0749 65.8683 56.4322 67.4177C56.6003 67.6097 56.7682 67.815 56.9362 68.031C58.3362 69.8523 60.8562 73.791 61.8882 76.9003C62.1922 77.8177 62.6082 78.9883 62.5176 81.247C62.5869 80.9323 62.8962 79.551 62.9042 78.5723C62.9096 77.143 62.8482 75.8817 62.6989 74.9857C62.4642 73.5643 62.1069 72.4337 61.5789 71.119C60.5096 68.4843 58.2722 64.7243 56.8349 62.943C55.3229 61.071 53.2083 59.8097 50.8776 60.4043C48.5976 60.9857 41.3122 62.7963 39.4829 63.1857C38.7922 63.3563 38.2296 63.487 37.8749 63.543C37.1362 63.655 36.3869 63.687 35.6429 63.6577C35.3256 63.6443 35.0082 63.6203 34.6936 63.5803C33.7229 63.455 32.8509 63.119 32.0989 62.6603C31.3682 62.2097 30.8056 61.6337 30.3869 61.047Z" fill="#DEB993"/>
<path opacity="0.636" d="M30.2053 61.3223C29.7573 62.1463 29.5227 62.9943 29.56 63.8237C29.5787 64.4583 29.808 65.0983 30.2293 65.701C31.728 67.3677 33.8507 67.941 36.52 68.1303C37.576 68.1223 38.6773 68.0157 39.816 67.7943C40.0373 67.7917 40.7173 67.669 41.632 67.4797C43.5573 66.989 48.1547 65.8183 50.3307 65.2637C50.7147 65.165 51.0747 65.1037 51.408 65.069C53.3707 64.8663 55.144 65.9197 56.4853 67.477C56.6507 67.6663 56.816 67.8717 56.9813 68.0903C58.4453 70.0077 60.9147 73.949 61.896 76.925C62.1627 77.7383 62.5974 78.8423 62.5173 81.2503C62.5947 80.8877 62.8587 79.6157 62.872 78.6557C62.8853 77.2877 62.824 76.0397 62.6613 75.173C62.416 73.8663 62.0347 72.7277 61.4933 71.4317C60.3867 68.805 58.248 65.2023 56.8613 63.485C55.3493 61.613 53.2347 60.3517 50.904 60.9463C48.672 61.5143 41.456 63.301 39.32 63.757C38.5947 63.9303 38.0187 64.061 37.6853 64.1063C36.936 64.2103 36.1733 64.2317 35.4187 64.189C35.096 64.1703 34.776 64.1383 34.456 64.0903C33.4667 63.9383 32.592 63.565 31.8533 63.0583C31.1387 62.5677 30.592 61.9463 30.2053 61.3223Z" fill="#DDB791"/>
<path opacity="0.727" d="M30.0208 61.5938C29.6154 62.4311 29.4314 63.2871 29.5274 64.1191C29.5968 64.7671 29.8741 65.3911 30.3274 65.9698C31.9808 67.6578 34.1701 68.0738 36.6954 68.2044C37.7594 68.1724 38.8581 68.0391 39.9701 67.7884C40.1381 67.7858 40.8208 67.6498 41.7674 67.4418C43.8181 66.9191 48.3434 65.7671 50.4234 65.2364C50.8021 65.1404 51.1621 65.0818 51.5008 65.0551C53.4474 64.8951 55.2048 65.9698 56.5301 67.5324C56.6901 67.7218 56.8554 67.9244 57.0208 68.1431C58.5488 70.1591 60.9701 74.0978 61.9008 76.9431C62.1328 77.6498 62.5861 78.6924 62.5168 81.2471C62.5994 80.8391 62.8234 79.6738 62.8394 78.7298C62.8608 77.4204 62.7994 76.1858 62.6208 75.3538C62.3674 74.1591 61.9621 73.0178 61.4074 71.7378C60.2608 69.1191 58.2234 65.6764 56.8874 64.0231C55.3754 62.1511 53.2608 60.8898 50.9301 61.4844C48.7461 62.0418 41.6021 63.7991 39.1594 64.3218C38.3968 64.4978 37.8074 64.6258 37.4981 64.6658C36.7354 64.7618 35.9621 64.7751 35.1941 64.7191C34.8661 64.6951 34.5408 64.6578 34.2181 64.6018C33.2101 64.4284 32.3328 64.0098 31.6101 63.4578C30.9088 62.9218 30.3808 62.2578 30.0208 61.5938Z" fill="#DCB58F"/>
<path opacity="0.818" d="M29.8407 61.8691C29.4807 62.7171 29.3474 63.5838 29.4994 64.4185C29.6194 65.0798 29.9474 65.6905 30.4301 66.2425C32.2381 67.9518 34.4941 68.2131 36.8727 68.2851C37.9447 68.2291 39.0381 68.0665 40.1287 67.7891C40.2407 67.7891 40.9287 67.6371 41.9074 67.4105C44.0834 66.8558 48.5367 65.7225 50.5234 65.2158C50.8967 65.1198 51.2567 65.0665 51.5981 65.0451C53.5314 64.9251 55.2701 66.0238 56.5794 67.5918C56.7367 67.7811 56.8994 67.9838 57.0621 68.1998C58.6514 70.3145 61.0274 74.2505 61.9047 76.9651C62.0994 77.5651 62.5741 78.5465 62.5127 81.2478C62.6034 80.7945 62.7821 79.7358 62.8034 78.8105C62.8301 77.5625 62.7714 76.3411 62.5794 75.5385C62.3181 74.4531 61.8861 73.3118 61.3181 72.0478C60.1341 69.4371 58.1954 66.1545 56.9101 64.5625C55.3981 62.6905 53.2834 61.4291 50.9527 62.0238C48.8167 62.5678 41.7421 64.3011 38.9954 64.8878C38.1981 65.0665 37.5954 65.1945 37.3074 65.2265C36.5314 65.3118 35.7447 65.3171 34.9687 65.2478C34.6381 65.2185 34.3074 65.1731 33.9794 65.1118C32.9527 64.9145 32.0754 64.4531 31.3661 63.8585C30.6807 63.2798 30.1687 62.5705 29.8407 61.8691Z" fill="#DCB38D"/>
<path opacity="0.909" d="M29.6583 62.1436C29.3437 63.0049 29.2583 63.8769 29.4717 64.7169C29.6423 65.3916 30.0183 65.9862 30.533 66.5169C32.4957 68.2502 34.8183 68.3542 37.053 68.3649C38.1357 68.2849 39.221 68.0956 40.2877 67.7862C40.3437 67.7862 41.0343 67.6209 42.0477 67.3756C44.3517 66.7889 48.733 65.6716 50.6237 65.1916C50.9917 65.0982 51.3517 65.0476 51.6983 65.0316C53.6157 64.9516 55.3383 66.0742 56.6317 67.6476C56.7863 67.8342 56.9437 68.0369 57.109 68.2556C58.7623 70.4662 61.0983 74.4022 61.917 76.9862C62.077 77.4822 62.5677 78.3996 62.5197 81.2502C62.6157 80.7516 62.7517 79.7996 62.7783 78.8929C62.813 77.7062 62.757 76.4956 62.5463 75.7276C62.2797 74.7542 61.821 73.6102 61.237 72.3622C60.0157 69.7596 58.1757 66.6342 56.941 65.1062C55.429 63.2342 53.3143 61.9729 50.9837 62.5676C48.8957 63.1009 41.893 64.8076 38.8397 65.4582C38.005 65.6422 37.389 65.7649 37.125 65.7889C36.3357 65.8636 35.5383 65.8636 34.7517 65.7809C34.4157 65.7462 34.0797 65.6929 33.749 65.6236C32.7037 65.4022 31.8237 64.8982 31.1277 64.2582C30.4477 63.6342 29.957 62.8822 29.6583 62.1436Z" fill="#DBB08A"/>
<path d="M30.6319 66.7833C32.7493 68.538 35.1386 68.4846 37.2293 68.4393C38.3199 68.3353 39.4026 68.1166 40.4453 67.7806C40.4453 67.7806 48.1519 65.818 50.7199 65.162C53.0506 64.5673 55.1653 65.8286 56.6773 67.7006C58.4186 69.858 61.0773 74.3193 61.9173 77.0046C62.0399 77.394 62.5519 78.25 62.5119 81.2473C62.7466 80.0153 62.9146 77.2233 62.5039 75.9086C61.6639 73.2233 58.7066 67.8046 56.9626 65.6446C55.4506 63.7726 53.3359 62.5113 51.0053 63.106C48.4373 63.7593 38.1093 66.258 36.9333 66.3513C35.7893 66.4393 34.6266 66.3913 33.5066 66.1353C31.4026 65.6553 30.0159 63.9913 29.4746 62.418C29.2026 63.2926 29.1679 64.1726 29.4399 65.0153C29.6639 65.7006 30.0906 66.282 30.6319 66.7833Z" fill="#DAAE88"/>
</g>
<path opacity="0.063" d="M64.7682 52.6078L57.1602 33.0078L85.1815 62.4478L64.7682 52.6078Z" fill="url(#paint4_linear_4_3005)"/>
<path opacity="0.125" d="M64.7976 52.6847L57.6562 34.29L85.1816 62.4474L64.7976 52.6847Z" fill="url(#paint5_linear_4_3005)"/>
<path opacity="0.188" d="M64.8268 52.7599L58.1548 35.5732L85.1815 62.4479L64.8268 52.7599Z" fill="url(#paint6_linear_4_3005)"/>
<path opacity="0.25" d="M64.8565 52.8371L58.6538 36.8584L85.1818 62.4477L64.8565 52.8371Z" fill="url(#paint7_linear_4_3005)"/>
<path opacity="0.313" d="M64.8857 52.9123L59.1523 38.1416L85.1817 62.4483L64.8857 52.9123Z" fill="url(#paint8_linear_4_3005)"/>
<path opacity="0.375" d="M64.9149 52.9892L59.6509 39.4238L85.1815 62.4478L64.9149 52.9892Z" fill="url(#paint9_linear_4_3005)"/>
<path opacity="0.438" d="M64.9446 53.0661L60.1499 40.7061L85.1819 62.4474L64.9446 53.0661Z" fill="url(#paint10_linear_4_3005)"/>
<path opacity="0.5" d="M64.974 53.1415L60.646 41.9922L85.182 62.4482L64.974 53.1415Z" fill="url(#paint11_linear_4_3005)"/>
<path opacity="0.563" d="M65.0059 53.2184L61.1445 43.2744L85.1819 62.4477L65.0059 53.2184Z" fill="url(#paint12_linear_4_3005)"/>
<path opacity="0.625" d="M65.0351 53.2963L61.6431 44.5576L85.1817 62.4483L65.0351 53.2963Z" fill="url(#paint13_linear_4_3005)"/>
<path opacity="0.688" d="M65.0648 53.3708L62.1421 45.8428L85.1821 62.4481L65.0648 53.3708Z" fill="url(#paint14_linear_4_3005)"/>
<path opacity="0.75" d="M65.094 53.4486L62.6406 47.126L85.182 62.4486L65.094 53.4486Z" fill="url(#paint15_linear_4_3005)"/>
<path opacity="0.813" d="M65.1219 53.5229L63.1353 48.4082L85.1806 62.4482L65.1219 53.5229Z" fill="url(#paint16_linear_4_3005)"/>
<path opacity="0.875" d="M65.1516 53.5998L63.6343 49.6904L85.1809 62.4478L65.1516 53.5998Z" fill="url(#paint17_linear_4_3005)"/>
<path opacity="0.938" d="M65.1808 53.6769L64.1328 50.9756L85.1808 62.4476L65.1808 53.6769Z" fill="url(#paint18_linear_4_3005)"/>
<path d="M85.1807 62.4481L65.21 53.7521L64.6313 52.2588L85.1807 62.4481Z" fill="url(#paint19_linear_4_3005)"/>
<g opacity="0.9">
<path opacity="0.063" d="M76.2085 29.0185L77.0005 22.2451L92.1685 55.9278L93.5232 59.7891L76.2085 29.0185Z" fill="url(#paint20_linear_4_3005)"/>
<path opacity="0.125" d="M76.2407 29.3251L76.9527 22.7598L92.1101 55.9118L93.5234 59.7891L76.2407 29.3251Z" fill="url(#paint21_linear_4_3005)"/>
<path opacity="0.188" d="M76.272 29.6344L76.9013 23.2744L92.0506 55.8957L93.5226 59.7891L76.272 29.6344Z" fill="url(#paint22_linear_4_3005)"/>
<path opacity="0.25" d="M76.3047 29.9437L76.854 23.7891L91.9927 55.8797L93.5234 59.7891L76.3047 29.9437Z" fill="url(#paint23_linear_4_3005)"/>
<path opacity="0.313" d="M76.3335 30.2528L76.8028 24.3008L91.9335 55.8634L93.5228 59.7888L76.3335 30.2528Z" fill="url(#paint24_linear_4_3005)"/>
<path opacity="0.375" d="M76.3657 30.5604L76.7551 24.8164L91.8751 55.8484L93.5231 59.7897L76.3657 30.5604Z" fill="url(#paint25_linear_4_3005)"/>
<path opacity="0.438" d="M76.397 30.8687L76.7036 25.3301L91.8183 55.8314L93.5223 59.7887L76.397 30.8687Z" fill="url(#paint26_linear_4_3005)"/>
<path opacity="0.5" d="M76.4297 31.179L76.6564 25.8457L91.7604 55.8164L93.523 59.7897L76.4297 31.179Z" fill="url(#paint27_linear_4_3005)"/>
<path opacity="0.563" d="M76.4595 31.4847L76.6061 26.3594L91.7021 55.7994L93.5235 59.7887L76.4595 31.4847Z" fill="url(#paint28_linear_4_3005)"/>
<path opacity="0.625" d="M76.4907 31.795L76.5574 26.875L91.6427 55.7843L93.5227 59.7897L76.4907 31.795Z" fill="url(#paint29_linear_4_3005)"/>
<path opacity="0.688" d="M76.5226 32.1033L76.5093 27.3887L91.5839 55.7673L93.5226 59.7887L76.5226 32.1033Z" fill="url(#paint30_linear_4_3005)"/>
<path opacity="0.75" d="M76.5555 32.4136L76.4595 27.9043L91.5261 55.7523L93.5235 59.7896L76.5555 32.4136Z" fill="url(#paint31_linear_4_3005)"/>
<path opacity="0.813" d="M76.585 32.7193L76.4116 28.418L91.4676 55.7353L93.5236 59.7886L76.585 32.7193Z" fill="url(#paint32_linear_4_3005)"/>
<path opacity="0.875" d="M76.6168 33.0293L76.3608 28.9307L91.4088 55.72L93.5235 59.7893L76.6168 33.0293Z" fill="url(#paint33_linear_4_3005)"/>
<path opacity="0.938" d="M76.6485 33.3386L76.3125 29.4453L91.3498 55.704L93.5232 59.7893L76.6485 33.3386Z" fill="url(#paint34_linear_4_3005)"/>
<path d="M93.5231 59.7893L76.6804 33.6453L76.2617 29.96L91.2911 55.688L93.5231 59.7893Z" fill="url(#paint35_linear_4_3005)"/>
</g>
<defs>
<radialGradient id="paint0_radial_4_3005" cx="0" cy="0" r="1" gradientUnits="userSpaceOnUse" gradientTransform="translate(79.6483 41.7097) rotate(180) scale(23.664 46.5731)">
<stop stop-color="#E3C7A1"/>
<stop offset="0.629" stop-color="#DAAE88"/>
<stop offset="0.714" stop-color="#D7A983"/>
<stop offset="0.82" stop-color="#CF9B73"/>
<stop offset="0.936" stop-color="#C1845A"/>
<stop offset="0.999" stop-color="#B87449"/>
</radialGradient>
<radialGradient id="paint1_radial_4_3005" cx="0" cy="0" r="1" gradientUnits="userSpaceOnUse" gradientTransform="translate(67.5309 39.3972) rotate(165.978) scale(24.8346 49.8897)">
<stop stop-color="#E3C7A1"/>
<stop offset="0.629" stop-color="#DAAE88"/>
<stop offset="0.714" stop-color="#D7A983"/>
<stop offset="0.82" stop-color="#CF9B73"/>
<stop offset="0.936" stop-color="#C1845A"/>
<stop offset="0.999" stop-color="#B87449"/>
</radialGradient>
<radialGradient id="paint2_radial_4_3005" cx="0" cy="0" r="1" gradientUnits="userSpaceOnUse" gradientTransform="translate(53.6396 41.2234) rotate(142.888) scale(28.9427 47.4254)">
<stop stop-color="#E3C7A1"/>
<stop offset="0.629" stop-color="#DAAE88"/>
<stop offset="0.714" stop-color="#D7A983"/>
<stop offset="0.82" stop-color="#CF9B73"/>
<stop offset="0.936" stop-color="#C1845A"/>
<stop offset="0.999" stop-color="#B87449"/>
</radialGradient>
<radialGradient id="paint3_radial_4_3005" cx="0" cy="0" r="1" gradientUnits="userSpaceOnUse" gradientTransform="translate(49.2643 79.5419) scale(44.4107 44.877)">
<stop stop-color="#E3C7A1"/>
<stop offset="0.629" stop-color="#DAAE88"/>
<stop offset="0.714" stop-color="#D7A983"/>
<stop offset="0.82" stop-color="#CF9B73"/>
<stop offset="0.936" stop-color="#C1845A"/>
<stop offset="0.999" stop-color="#B87449"/>
</radialGradient>
<linearGradient id="paint4_linear_4_3005" x1="57.1602" y1="47.7278" x2="85.1815" y2="47.7278" gradientUnits="userSpaceOnUse">
<stop stop-color="#D9AC86"/>
<stop offset="1" stop-color="#E1C39D" stop-opacity="0.063"/>
</linearGradient>
<linearGradient id="paint5_linear_4_3005" x1="57.6589" y1="48.3674" x2="85.1816" y2="48.3674" gradientUnits="userSpaceOnUse">
<stop stop-color="#D8AA84"/>
<stop offset="1" stop-color="#DFC09A" stop-opacity="0.125"/>
</linearGradient>
<linearGradient id="paint6_linear_4_3005" x1="58.1548" y1="49.0106" x2="85.1815" y2="49.0106" gradientUnits="userSpaceOnUse">
<stop stop-color="#D6A881"/>
<stop offset="1" stop-color="#DEBC96" stop-opacity="0.188"/>
</linearGradient>
<linearGradient id="paint7_linear_4_3005" x1="58.6538" y1="49.6531" x2="85.1818" y2="49.6531" gradientUnits="userSpaceOnUse">
<stop stop-color="#D5A67F"/>
<stop offset="1" stop-color="#DCB992" stop-opacity="0.25"/>
</linearGradient>
<linearGradient id="paint8_linear_4_3005" x1="59.1523" y1="50.2936" x2="85.1817" y2="50.2936" gradientUnits="userSpaceOnUse">
<stop stop-color="#D4A47D"/>
<stop offset="1" stop-color="#DAB58E" stop-opacity="0.313"/>
</linearGradient>
<linearGradient id="paint9_linear_4_3005" x1="59.6509" y1="50.9358" x2="85.1815" y2="50.9358" gradientUnits="userSpaceOnUse">
<stop stop-color="#D3A27B"/>
<stop offset="1" stop-color="#D8B18B" stop-opacity="0.375"/>
</linearGradient>
<linearGradient id="paint10_linear_4_3005" x1="60.1472" y1="51.5781" x2="85.1819" y2="51.5781" gradientUnits="userSpaceOnUse">
<stop stop-color="#D1A079"/>
<stop offset="1" stop-color="#D6AE87" stop-opacity="0.438"/>
</linearGradient>
<linearGradient id="paint11_linear_4_3005" x1="60.646" y1="52.2189" x2="85.182" y2="52.2189" gradientUnits="userSpaceOnUse">
<stop stop-color="#D09E77"/>
<stop offset="1" stop-color="#D4AA83" stop-opacity="0.5"/>
</linearGradient>
<linearGradient id="paint12_linear_4_3005" x1="61.1445" y1="52.8611" x2="85.1819" y2="52.8611" gradientUnits="userSpaceOnUse">
<stop stop-color="#CF9B74"/>
<stop offset="1" stop-color="#D3A67F" stop-opacity="0.563"/>
</linearGradient>
<linearGradient id="paint13_linear_4_3005" x1="61.6431" y1="53.5043" x2="85.1817" y2="53.5043" gradientUnits="userSpaceOnUse">
<stop stop-color="#CE9972"/>
<stop offset="1" stop-color="#D1A37B" stop-opacity="0.625"/>
</linearGradient>
<linearGradient id="paint14_linear_4_3005" x1="62.1421" y1="54.1441" x2="85.1821" y2="54.1441" gradientUnits="userSpaceOnUse">
<stop stop-color="#CC9770"/>
<stop offset="1" stop-color="#CF9F78" stop-opacity="0.688"/>
</linearGradient>
<linearGradient id="paint15_linear_4_3005" x1="62.6406" y1="54.7873" x2="85.182" y2="54.7873" gradientUnits="userSpaceOnUse">
<stop stop-color="#CB956E"/>
<stop offset="1" stop-color="#CD9C74" stop-opacity="0.75"/>
</linearGradient>
<linearGradient id="paint16_linear_4_3005" x1="63.1353" y1="55.4269" x2="85.1806" y2="55.4269" gradientUnits="userSpaceOnUse">
<stop stop-color="#CA936C"/>
<stop offset="1" stop-color="#CB9870" stop-opacity="0.813"/>
</linearGradient>
<linearGradient id="paint17_linear_4_3005" x1="63.6343" y1="56.0691" x2="85.1809" y2="56.0691" gradientUnits="userSpaceOnUse">
<stop stop-color="#C99169"/>
<stop offset="1" stop-color="#CA946D" stop-opacity="0.875"/>
</linearGradient>
<linearGradient id="paint18_linear_4_3005" x1="64.1328" y1="56.7116" x2="85.1808" y2="56.7116" gradientUnits="userSpaceOnUse">
<stop stop-color="#C78F67"/>
<stop offset="1" stop-color="#C89169" stop-opacity="0.938"/>
</linearGradient>
<linearGradient id="paint19_linear_4_3005" x1="64.6313" y1="57.3521" x2="85.1807" y2="57.3521" gradientUnits="userSpaceOnUse">
<stop stop-color="#C68D65"/>
<stop offset="1" stop-color="#C68D65"/>
</linearGradient>
<linearGradient id="paint20_linear_4_3005" x1="74.5765" y1="25.7678" x2="96.7818" y2="57.4531" gradientUnits="userSpaceOnUse">
<stop stop-color="#E1C39D" stop-opacity="0.063"/>
<stop offset="1" stop-color="#C68D65"/>
</linearGradient>
<linearGradient id="paint21_linear_4_3005" x1="73.8167" y1="27.0131" x2="97.4834" y2="56.5678" gradientUnits="userSpaceOnUse">
<stop stop-color="#DFC09A" stop-opacity="0.125"/>
<stop offset="1" stop-color="#C68D65"/>
</linearGradient>
<linearGradient id="paint22_linear_4_3005" x1="73.1786" y1="28.3304" x2="98.0506" y2="55.6131" gradientUnits="userSpaceOnUse">
<stop stop-color="#DEBC96" stop-opacity="0.188"/>
<stop offset="1" stop-color="#C68D65"/>
</linearGradient>
<linearGradient id="paint23_linear_4_3005" x1="72.6674" y1="29.7064" x2="98.4754" y2="54.6131" gradientUnits="userSpaceOnUse">
<stop stop-color="#DCB992" stop-opacity="0.25"/>
<stop offset="1" stop-color="#C68D65"/>
</linearGradient>
<linearGradient id="paint24_linear_4_3005" x1="72.2908" y1="31.1221" x2="98.7548" y2="53.5781" gradientUnits="userSpaceOnUse">
<stop stop-color="#DAB58E" stop-opacity="0.313"/>
<stop offset="1" stop-color="#C68D65"/>
</linearGradient>
<linearGradient id="paint25_linear_4_3005" x1="72.0484" y1="32.5657" x2="98.8911" y2="52.5364" gradientUnits="userSpaceOnUse">
<stop stop-color="#D8B18B" stop-opacity="0.375"/>
<stop offset="1" stop-color="#C68D65"/>
</linearGradient>
<linearGradient id="paint26_linear_4_3005" x1="71.9436" y1="34.0127" x2="98.8796" y2="51.4954" gradientUnits="userSpaceOnUse">
<stop stop-color="#D6AE87" stop-opacity="0.438"/>
<stop offset="1" stop-color="#C68D65"/>
</linearGradient>
<linearGradient id="paint27_linear_4_3005" x1="71.9737" y1="35.451" x2="98.731" y2="50.4804" gradientUnits="userSpaceOnUse">
<stop stop-color="#D4AA83" stop-opacity="0.5"/>
<stop offset="1" stop-color="#C68D65"/>
</linearGradient>
<linearGradient id="paint28_linear_4_3005" x1="72.1341" y1="36.8634" x2="98.4461" y2="49.5034" gradientUnits="userSpaceOnUse">
<stop stop-color="#D3A67F" stop-opacity="0.563"/>
<stop offset="1" stop-color="#C68D65"/>
</linearGradient>
<linearGradient id="paint29_linear_4_3005" x1="72.4187" y1="38.235" x2="98.0374" y2="48.5817" gradientUnits="userSpaceOnUse">
<stop stop-color="#D1A37B" stop-opacity="0.625"/>
<stop offset="1" stop-color="#C68D65"/>
</linearGradient>
<linearGradient id="paint30_linear_4_3005" x1="72.8239" y1="39.5513" x2="97.5066" y2="47.7273" gradientUnits="userSpaceOnUse">
<stop stop-color="#CF9F78" stop-opacity="0.688"/>
<stop offset="1" stop-color="#C68D65"/>
</linearGradient>
<linearGradient id="paint31_linear_4_3005" x1="73.3368" y1="40.7976" x2="96.8728" y2="46.955" gradientUnits="userSpaceOnUse">
<stop stop-color="#CD9C74" stop-opacity="0.75"/>
<stop offset="1" stop-color="#C68D65"/>
</linearGradient>
<linearGradient id="paint32_linear_4_3005" x1="73.9503" y1="41.962" x2="96.145" y2="46.274" gradientUnits="userSpaceOnUse">
<stop stop-color="#CB9870" stop-opacity="0.813"/>
<stop offset="1" stop-color="#C68D65"/>
</linearGradient>
<linearGradient id="paint33_linear_4_3005" x1="74.6515" y1="43.0373" x2="95.3315" y2="45.6987" gradientUnits="userSpaceOnUse">
<stop stop-color="#CA946D" stop-opacity="0.875"/>
<stop offset="1" stop-color="#C68D65"/>
</linearGradient>
<linearGradient id="paint34_linear_4_3005" x1="75.4272" y1="44.0106" x2="94.4538" y2="45.2293" gradientUnits="userSpaceOnUse">
<stop stop-color="#C89169" stop-opacity="0.938"/>
<stop offset="1" stop-color="#C68D65"/>
</linearGradient>
<linearGradient id="paint35_linear_4_3005" x1="76.2617" y1="44.8746" x2="93.5231" y2="44.8746" gradientUnits="userSpaceOnUse">
<stop stop-color="#C68D65"/>
<stop offset="1" stop-color="#C68D65"/>
</linearGradient>
</defs>
</svg>
