<svg width="60" height="60" viewBox="0 0 60 60" fill="none" xmlns="http://www.w3.org/2000/svg">
<g filter="url(#filter0_iiii_4_2953)">
<path d="M22.658 56.0006C22.659 55.9995 22.6583 55.9977 22.6567 55.9977C12.3978 56.0188 4.02338 47.6721 4.00005 37.4068C3.97672 27.0935 12.3125 18.711 22.6142 18.6877C32.8984 18.6643 41.2984 27.0177 41.31 37.2902C41.3217 47.6313 33.0114 55.9721 22.6592 56.0035C22.6577 56.0035 22.6569 56.0017 22.658 56.0006Z" fill="#8456FF"/>
<path d="M59.93 18.6352C59.5334 26.3293 56.0392 32.0343 49.045 35.476C47.4934 36.2402 45.825 35.3185 45.5392 33.5977C44.8859 29.7068 43.3809 26.1777 40.9426 23.0743C37.2676 18.4018 32.4959 15.5085 26.6392 14.4177C26.3767 14.371 26.1084 14.3302 25.8575 14.2543C24.4517 13.8285 23.7692 12.2768 24.3876 10.906C25.6476 8.12351 27.4851 5.79017 29.9001 3.91184C32.7059 1.74184 35.8792 0.452675 39.4025 0.0968414C48.8292 -0.853992 57.2409 5.29434 59.3875 14.2543C59.7317 15.6893 59.9067 17.1418 59.93 18.6352Z" fill="#8456FF"/>
</g>
<path d="M29.536 36.872V34.784H28.096C28.288 34.328 28.336 33.896 28.336 33.512C28.336 30.824 26.128 29 22.744 29C20.248 29 18.376 30.008 17.032 31.904L19 33.44C19.792 32.048 21.064 31.328 22.672 31.328C24.544 31.328 25.864 32.336 25.864 33.752C25.864 34.088 25.768 34.448 25.648 34.784H16V36.872H29.536ZM22.84 46.544C25.768 46.544 27.784 45.392 29.056 43.04L26.92 41.744C26.128 43.328 24.712 44.168 22.84 44.168C20.776 44.168 19.312 43.112 19.312 41.504C19.312 41.12 19.408 40.808 19.528 40.496H29.536V38.408H16V40.496H17.008C16.888 40.904 16.816 41.312 16.816 41.768C16.816 44.696 19.168 46.544 22.84 46.544Z" fill="#D9EDFE"/>
<g filter="url(#filter1_f_4_2953)">
<path d="M21.3469 55.9953C21.3479 55.9943 21.3472 55.9926 21.3458 55.9926C11.8077 56.0122 4.02174 48.2622 4.00005 38.7308C3.97835 29.1547 11.7285 21.3715 21.3062 21.3498C30.8678 21.3281 38.6775 29.0843 38.6884 38.6225C38.6992 48.2243 30.9729 55.9689 21.3481 55.998C21.3467 55.998 21.3459 55.9963 21.3469 55.9953Z" fill="url(#paint0_linear_4_2953)" fill-opacity="0.9"/>
<path d="M56 21.3011C55.6312 28.4452 52.3826 33.7424 45.8799 36.938C44.4372 37.6475 42.8861 36.7917 42.6204 35.1939C42.0129 31.5812 40.6137 28.3044 38.3467 25.4229C34.9299 21.0844 30.4936 18.3979 25.0484 17.385C24.8044 17.3417 24.5549 17.3038 24.3217 17.2334C23.0146 16.838 22.3801 15.3973 22.955 14.1244C24.1264 11.5408 25.8348 9.3743 28.0801 7.63024C30.6888 5.61537 33.6392 4.41836 36.9149 4.08797C45.6792 3.2051 53.4998 8.91391 55.4956 17.2334C55.8156 18.5658 55.9783 19.9145 56 21.3011Z" fill="url(#paint1_linear_4_2953)" fill-opacity="0.9"/>
</g>
<defs>
<filter id="filter0_iiii_4_2953" x="0.49635" y="-1.75182" width="61.1852" height="59.3674" filterUnits="userSpaceOnUse" color-interpolation-filters="sRGB">
<feFlood flood-opacity="0" result="BackgroundImageFix"/>
<feBlend mode="normal" in="SourceGraphic" in2="BackgroundImageFix" result="shape"/>
<feColorMatrix in="SourceAlpha" type="matrix" values="0 0 0 0 0 0 0 0 0 0 0 0 0 0 0 0 0 0 127 0" result="hardAlpha"/>
<feOffset dx="-3.50365" dy="-1.75182"/>
<feGaussianBlur stdDeviation="1.75182"/>
<feComposite in2="hardAlpha" operator="arithmetic" k2="-1" k3="1"/>
<feColorMatrix type="matrix" values="0 0 0 0 0 0 0 0 0 0 0 0 0 0 0 0 0 0 0.3 0"/>
<feBlend mode="normal" in2="shape" result="effect1_innerShadow_4_2953"/>
<feColorMatrix in="SourceAlpha" type="matrix" values="0 0 0 0 0 0 0 0 0 0 0 0 0 0 0 0 0 0 127 0" result="hardAlpha"/>
<feOffset dx="-0.420438" dy="-0.210219"/>
<feGaussianBlur stdDeviation="0.525548"/>
<feComposite in2="hardAlpha" operator="arithmetic" k2="-1" k3="1"/>
<feColorMatrix type="matrix" values="0 0 0 0 0 0 0 0 0 0 0 0 0 0 0 0 0 0 0.35 0"/>
<feBlend mode="normal" in2="effect1_innerShadow_4_2953" result="effect2_innerShadow_4_2953"/>
<feColorMatrix in="SourceAlpha" type="matrix" values="0 0 0 0 0 0 0 0 0 0 0 0 0 0 0 0 0 0 127 0" result="hardAlpha"/>
<feOffset dx="1.75182" dy="1.61168"/>
<feGaussianBlur stdDeviation="1.75182"/>
<feComposite in2="hardAlpha" operator="arithmetic" k2="-1" k3="1"/>
<feColorMatrix type="matrix" values="0 0 0 0 1 0 0 0 0 1 0 0 0 0 1 0 0 0 0.5 0"/>
<feBlend mode="normal" in2="effect2_innerShadow_4_2953" result="effect3_innerShadow_4_2953"/>
<feColorMatrix in="SourceAlpha" type="matrix" values="0 0 0 0 0 0 0 0 0 0 0 0 0 0 0 0 0 0 127 0" result="hardAlpha"/>
<feOffset dx="0.280292" dy="0.280292"/>
<feGaussianBlur stdDeviation="0.525548"/>
<feComposite in2="hardAlpha" operator="arithmetic" k2="-1" k3="1"/>
<feColorMatrix type="matrix" values="0 0 0 0 1 0 0 0 0 1 0 0 0 0 1 0 0 0 0.7 0"/>
<feBlend mode="normal" in2="effect3_innerShadow_4_2953" result="effect4_innerShadow_4_2953"/>
</filter>
<filter id="filter1_f_4_2953" x="0.49635" y="0.494397" width="59.0073" height="59.0073" filterUnits="userSpaceOnUse" color-interpolation-filters="sRGB">
<feFlood flood-opacity="0" result="BackgroundImageFix"/>
<feBlend mode="normal" in="SourceGraphic" in2="BackgroundImageFix" result="shape"/>
<feGaussianBlur stdDeviation="1.75182" result="effect1_foregroundBlur_4_2953"/>
</filter>
<linearGradient id="paint0_linear_4_2953" x1="5.56199" y1="11.2557" x2="31.9803" y2="31.7003" gradientUnits="userSpaceOnUse">
<stop stop-color="white"/>
<stop offset="1" stop-color="white" stop-opacity="0"/>
</linearGradient>
<linearGradient id="paint1_linear_4_2953" x1="5.56199" y1="11.2557" x2="31.9803" y2="31.7003" gradientUnits="userSpaceOnUse">
<stop stop-color="white"/>
<stop offset="1" stop-color="white" stop-opacity="0"/>
</linearGradient>
</defs>
</svg>
