<svg width="19" height="19" viewBox="0 0 19 19" fill="none" xmlns="http://www.w3.org/2000/svg">
<path d="M9.53809 18.6191C10.7627 18.6191 11.9141 18.3848 12.9922 17.916C14.0762 17.4473 15.0312 16.7998 15.8574 15.9736C16.6836 15.1475 17.3311 14.1953 17.7998 13.1172C18.2686 12.0332 18.5029 10.8789 18.5029 9.6543C18.5029 8.42969 18.2686 7.27832 17.7998 6.2002C17.3311 5.11621 16.6836 4.16113 15.8574 3.33496C15.0312 2.50879 14.0762 1.86133 12.9922 1.39258C11.9082 0.923828 10.7539 0.689453 9.5293 0.689453C8.30469 0.689453 7.15039 0.923828 6.06641 1.39258C4.98828 1.86133 4.03613 2.50879 3.20996 3.33496C2.38965 4.16113 1.74512 5.11621 1.27637 6.2002C0.807617 7.27832 0.573242 8.42969 0.573242 9.6543C0.573242 10.8789 0.807617 12.0332 1.27637 13.1172C1.74512 14.1953 2.39258 15.1475 3.21875 15.9736C4.04492 16.7998 4.99707 17.4473 6.0752 17.916C7.15918 18.3848 8.31348 18.6191 9.53809 18.6191ZM5.24902 9.66309C5.24902 9.43457 5.32227 9.25 5.46875 9.10938C5.61523 8.96289 5.80273 8.88965 6.03125 8.88965H8.78223V6.13867C8.78223 5.91016 8.84961 5.72266 8.98438 5.57617C9.125 5.42969 9.30664 5.35645 9.5293 5.35645C9.75781 5.35645 9.94238 5.42969 10.083 5.57617C10.2295 5.72266 10.3027 5.91016 10.3027 6.13867V8.88965H13.0625C13.291 8.88965 13.4756 8.96289 13.6162 9.10938C13.7627 9.25 13.8359 9.43457 13.8359 9.66309C13.8359 9.88574 13.7627 10.0674 13.6162 10.208C13.4697 10.3428 13.2852 10.4102 13.0625 10.4102H10.3027V13.1699C10.3027 13.3984 10.2295 13.5859 10.083 13.7324C9.94238 13.873 9.75781 13.9434 9.5293 13.9434C9.30664 13.9434 9.125 13.873 8.98438 13.7324C8.84961 13.5859 8.78223 13.3984 8.78223 13.1699V10.4102H6.03125C5.80273 10.4102 5.61523 10.3428 5.46875 10.208C5.32227 10.0674 5.24902 9.88574 5.24902 9.66309Z" fill="white"/>
</svg>
