<svg width="40" height="40" viewBox="0 0 40 40" fill="none" xmlns="http://www.w3.org/2000/svg">
<path d="M40 20C40 31.045 31.045 40 20 40C8.955 40 0 31.045 0 20C0 8.955 8.955 0 20 0C31.045 0 40 8.955 40 20Z" fill="url(#paint0_linear_116_691)"/>
<path opacity="0.05" d="M6.11916 19.4659C14.2742 15.7709 23.8522 11.7619 25.3272 11.1819C28.5792 9.90287 29.9972 11.2099 29.7752 13.2949C29.5022 15.8499 28.2082 23.2849 27.4122 28.6119C26.9462 31.7289 25.2582 32.6839 23.3532 31.4749C21.9082 30.5579 16.9402 27.3049 15.6332 26.1929C14.7422 25.4349 14.1212 24.5849 14.7532 23.7189C14.9382 23.4659 15.4112 22.9559 15.6742 22.7019C16.9932 21.4239 16.8152 21.1489 15.2202 22.2899C15.0302 22.4259 13.9282 23.2249 13.4752 23.5269C12.3652 24.2669 11.3442 24.3069 9.61316 23.7189C8.19716 23.2379 6.83716 22.8669 5.97916 22.4959C4.79416 21.9829 4.34016 20.2719 6.11916 19.4659Z" fill="black"/>
<path opacity="0.07" d="M6.83598 19.5906C14.408 16.2056 23.72 12.3266 25.082 11.7776C28.346 10.4596 29.547 11.2416 29.196 13.7886C28.87 16.1466 27.713 23.4426 26.902 28.3336C26.424 31.2126 25.028 31.8466 23.21 30.6706C22.071 29.9366 17.487 26.9166 16.375 26.0376C15.515 25.3586 14.624 24.5746 15.665 23.4396C16.013 23.0606 17.935 21.2056 19.372 19.8256C20.205 19.0246 19.908 18.6296 18.903 19.3176C17.06 20.5806 14.045 22.5796 13.507 22.9426C12.482 23.6326 11.519 23.7986 9.84298 23.2716C8.52198 22.8556 7.24598 22.4526 6.58098 22.1936C5.09498 21.6176 5.07498 20.3776 6.83598 19.5906Z" fill="black"/>
<path d="M7.55301 19.7165C14.543 16.6415 23.588 12.8925 24.837 12.3735C28.112 11.0155 29.117 11.2755 28.616 14.2835C28.256 16.4455 27.218 23.6025 26.39 28.0575C25.899 30.6995 24.797 31.0125 23.065 29.8695C22.232 29.3195 18.027 26.5385 17.114 25.8855C16.281 25.2905 15.132 24.5745 16.573 23.1645C17.086 22.6625 20.447 19.4525 23.066 16.9545C23.409 16.6265 22.978 16.0875 22.582 16.3505C19.052 18.6915 14.158 21.9405 13.535 22.3635C12.594 23.0025 11.69 23.2955 10.068 22.8295C8.84201 22.4775 7.64501 22.0575 7.17901 21.8975C5.38401 21.2815 5.81001 20.4835 7.55301 19.7165Z" fill="white"/>
<defs>
<linearGradient id="paint0_linear_116_691" x1="5.858" y1="5.858" x2="34.142" y2="34.142" gradientUnits="userSpaceOnUse">
<stop stop-color="#33BEF0"/>
<stop offset="1" stop-color="#0A85D9"/>
</linearGradient>
</defs>
</svg>
