<svg width="62" height="56" viewBox="0 0 62 56" fill="none" xmlns="http://www.w3.org/2000/svg">
<g filter="url(#filter0_iiii_4_2960)">
<path d="M41.8562 14.1947C41.86 14.1872 41.8546 14.1785 41.8462 14.1785C40.2657 14.1785 38.7408 14.1785 37.2159 14.1785C36.3707 14.1785 35.7697 13.4636 35.9669 12.6559C36.0326 12.3774 36.2298 12.0896 36.4458 11.8761C38.4179 9.8987 40.4182 7.93986 42.3997 5.97172C44.2403 4.15213 46.0809 2.33254 47.9216 0.512945C48.6071 -0.164761 49.3302 -0.174044 50.0064 0.503661C53.8473 4.30067 57.6882 8.10696 61.5384 11.8947C62.3648 12.7116 62.008 13.9 61.0501 14.1413C60.8999 14.1785 60.7402 14.1877 60.5806 14.1877C59.1813 14.1877 57.7915 14.1877 56.3922 14.1877C56.1796 14.1877 56.0072 14.3601 56.0072 14.5728C56.0072 14.5837 56.0072 14.5946 56.0072 14.6055C56.0072 26.5535 56.0072 38.4923 56.0072 50.4403C56.0072 50.8303 55.9508 51.2016 55.6879 51.5173C55.4062 51.8515 55.0399 52 54.6079 52C50.814 52 47.0106 52 43.2167 52C42.3433 52 41.855 51.4615 41.855 50.561C41.855 38.5944 41.855 26.6278 41.855 14.6612V14.1997C41.855 14.1979 41.8554 14.1962 41.8562 14.1947Z" fill="#8456FF"/>
<path d="M37.0471 35.8001C37.0471 40.7018 37.0471 45.6036 37.0471 50.5146C37.0471 50.9138 36.9908 51.2759 36.6996 51.5822C36.4273 51.87 36.0798 51.9907 35.6854 51.9907C31.8821 51.9907 28.0694 51.9907 24.266 51.9907C23.4396 51.9907 22.9231 51.443 22.9231 50.626C22.9231 40.7575 22.9231 30.889 22.9231 21.0205C22.9231 20.1664 23.4396 19.6465 24.313 19.6465C28.0788 19.6465 31.8445 19.6465 35.6103 19.6465C36.54 19.6465 37.0471 20.1479 37.0471 21.0669C37.0471 25.978 37.0471 30.8983 37.0471 35.8093V35.8001Z" fill="#8456FF"/>
<path d="M18.1334 39.365C18.1334 43.0691 18.1334 46.764 18.1334 50.4682C18.1334 50.8767 18.0676 51.248 17.7765 51.5637C17.5324 51.8143 17.2412 51.9629 16.8844 51.9721C15.2034 52 13.5224 52.0464 11.8978 51.508C7.67186 50.1154 5.07057 47.2653 4.17843 42.9392C4.03756 42.2615 4 41.5559 4 40.8689C4 36.6634 4 32.4487 4 28.2432C4 27.2684 4.49772 26.7671 5.49316 26.7671C9.20259 26.7671 12.9214 26.7671 16.6308 26.7671C17.6451 26.7671 18.1334 27.2591 18.1334 28.2617C18.1334 31.9659 18.1334 35.6608 18.1334 39.365Z" fill="#8456FF"/>
</g>
<g filter="url(#filter1_f_4_2960)">
<path d="M39.2454 17.1027C39.2489 17.0959 39.244 17.0878 39.2363 17.0878C37.7647 17.0878 36.3449 17.0878 34.9251 17.0878C34.1382 17.0878 33.5787 16.428 33.7623 15.6824C33.8235 15.4253 34.0071 15.1597 34.2082 14.9626C36.0443 13.1373 37.9066 11.3291 39.7514 9.51236C41.4651 7.83274 43.1788 6.15311 44.8925 4.47349C45.5308 3.84791 46.204 3.83934 46.8335 4.46492C50.4095 7.96985 53.9855 11.4833 57.5703 14.9797C58.3397 15.7338 58.0074 16.8307 57.1156 17.0535C56.9757 17.0878 56.8271 17.0964 56.6785 17.0964C55.3757 17.0964 54.0817 17.0964 52.7789 17.0964C52.581 17.0964 52.4205 17.2569 52.4205 17.4549C52.4205 17.4639 52.4205 17.473 52.4205 17.482C52.4205 28.511 52.4205 39.5314 52.4205 50.5603C52.4205 50.9202 52.368 51.263 52.1232 51.5544C51.8609 51.8629 51.5199 52 51.1177 52C47.5854 52 44.0444 52 40.5121 52C39.699 52 39.2443 51.503 39.2443 50.6717C39.2443 39.6256 39.2443 28.5795 39.2443 17.5334V17.1074C39.2443 17.1058 39.2447 17.1042 39.2454 17.1027Z" fill="url(#paint0_linear_4_2960)" fill-opacity="0.9"/>
<path d="M34.768 37.0462C34.768 41.5709 34.768 46.0956 34.768 50.6289C34.768 50.9974 34.7155 51.3316 34.4445 51.6144C34.1909 51.88 33.8674 51.9914 33.5002 51.9914C29.9592 51.9914 26.4094 51.9914 22.8684 51.9914C22.099 51.9914 21.6181 51.4858 21.6181 50.7317C21.6181 41.6223 21.6181 32.5129 21.6181 23.4035C21.6181 22.6152 22.099 22.1353 22.9121 22.1353C26.4182 22.1353 29.9242 22.1353 33.4303 22.1353C34.2959 22.1353 34.768 22.598 34.768 23.4464C34.768 27.9797 34.768 32.5215 34.768 37.0548V37.0462Z" fill="url(#paint1_linear_4_2960)" fill-opacity="0.9"/>
<path d="M17.1587 40.3369C17.1587 43.7561 17.1587 47.1668 17.1587 50.586C17.1587 50.9631 17.0975 51.3059 16.8264 51.5972C16.5991 51.8286 16.3281 51.9657 15.9958 51.9743C14.4308 52 12.8657 52.0428 11.3531 51.5458C7.41863 50.2604 4.99674 47.6295 4.16612 43.6362C4.03497 43.0106 4 42.3593 4 41.7252C4 37.8432 4 33.9526 4 30.0706C4 29.1708 4.46339 28.7081 5.39018 28.7081C8.84379 28.7081 12.3061 28.7081 15.7597 28.7081C16.704 28.7081 17.1587 29.1622 17.1587 30.0878C17.1587 33.507 17.1587 36.9177 17.1587 40.3369Z" fill="url(#paint2_linear_4_2960)" fill-opacity="0.9"/>
</g>
<defs>
<filter id="filter0_iiii_4_2960" x="0.49635" y="-1.75182" width="63.2555" height="55.3635" filterUnits="userSpaceOnUse" color-interpolation-filters="sRGB">
<feFlood flood-opacity="0" result="BackgroundImageFix"/>
<feBlend mode="normal" in="SourceGraphic" in2="BackgroundImageFix" result="shape"/>
<feColorMatrix in="SourceAlpha" type="matrix" values="0 0 0 0 0 0 0 0 0 0 0 0 0 0 0 0 0 0 127 0" result="hardAlpha"/>
<feOffset dx="-3.50365" dy="-1.75182"/>
<feGaussianBlur stdDeviation="1.75182"/>
<feComposite in2="hardAlpha" operator="arithmetic" k2="-1" k3="1"/>
<feColorMatrix type="matrix" values="0 0 0 0 0 0 0 0 0 0 0 0 0 0 0 0 0 0 0.3 0"/>
<feBlend mode="normal" in2="shape" result="effect1_innerShadow_4_2960"/>
<feColorMatrix in="SourceAlpha" type="matrix" values="0 0 0 0 0 0 0 0 0 0 0 0 0 0 0 0 0 0 127 0" result="hardAlpha"/>
<feOffset dx="-0.420438" dy="-0.210219"/>
<feGaussianBlur stdDeviation="0.525548"/>
<feComposite in2="hardAlpha" operator="arithmetic" k2="-1" k3="1"/>
<feColorMatrix type="matrix" values="0 0 0 0 0 0 0 0 0 0 0 0 0 0 0 0 0 0 0.35 0"/>
<feBlend mode="normal" in2="effect1_innerShadow_4_2960" result="effect2_innerShadow_4_2960"/>
<feColorMatrix in="SourceAlpha" type="matrix" values="0 0 0 0 0 0 0 0 0 0 0 0 0 0 0 0 0 0 127 0" result="hardAlpha"/>
<feOffset dx="1.75182" dy="1.61168"/>
<feGaussianBlur stdDeviation="1.75182"/>
<feComposite in2="hardAlpha" operator="arithmetic" k2="-1" k3="1"/>
<feColorMatrix type="matrix" values="0 0 0 0 1 0 0 0 0 1 0 0 0 0 1 0 0 0 0.5 0"/>
<feBlend mode="normal" in2="effect2_innerShadow_4_2960" result="effect3_innerShadow_4_2960"/>
<feColorMatrix in="SourceAlpha" type="matrix" values="0 0 0 0 0 0 0 0 0 0 0 0 0 0 0 0 0 0 127 0" result="hardAlpha"/>
<feOffset dx="0.280292" dy="0.280292"/>
<feGaussianBlur stdDeviation="0.525548"/>
<feComposite in2="hardAlpha" operator="arithmetic" k2="-1" k3="1"/>
<feColorMatrix type="matrix" values="0 0 0 0 1 0 0 0 0 1 0 0 0 0 1 0 0 0 0.7 0"/>
<feBlend mode="normal" in2="effect3_innerShadow_4_2960" result="effect4_innerShadow_4_2960"/>
</filter>
<filter id="filter1_f_4_2960" x="0.49635" y="0.49635" width="61.0073" height="55.0073" filterUnits="userSpaceOnUse" color-interpolation-filters="sRGB">
<feFlood flood-opacity="0" result="BackgroundImageFix"/>
<feBlend mode="normal" in="SourceGraphic" in2="BackgroundImageFix" result="shape"/>
<feGaussianBlur stdDeviation="1.75182" result="effect1_foregroundBlur_4_2960"/>
</filter>
<linearGradient id="paint0_linear_4_2960" x1="5.62206" y1="10.6993" x2="30.5739" y2="32.4228" gradientUnits="userSpaceOnUse">
<stop stop-color="white"/>
<stop offset="1" stop-color="white" stop-opacity="0"/>
</linearGradient>
<linearGradient id="paint1_linear_4_2960" x1="5.62206" y1="10.6993" x2="30.5739" y2="32.4228" gradientUnits="userSpaceOnUse">
<stop stop-color="white"/>
<stop offset="1" stop-color="white" stop-opacity="0"/>
</linearGradient>
<linearGradient id="paint2_linear_4_2960" x1="5.62206" y1="10.6993" x2="30.5739" y2="32.4228" gradientUnits="userSpaceOnUse">
<stop stop-color="white"/>
<stop offset="1" stop-color="white" stop-opacity="0"/>
</linearGradient>
</defs>
</svg>
