<svg width="25" height="25" viewBox="0 0 25 25" fill="none" xmlns="http://www.w3.org/2000/svg">
<path d="M12.5 24.4922C14.1328 24.4922 15.668 24.1797 17.1055 23.5547C18.5508 22.9297 19.8242 22.0664 20.9258 20.9648C22.0273 19.8633 22.8906 18.5938 23.5156 17.1562C24.1406 15.7109 24.4531 14.1719 24.4531 12.5391C24.4531 10.9062 24.1406 9.37109 23.5156 7.93359C22.8906 6.48828 22.0273 5.21484 20.9258 4.11328C19.8242 3.01172 18.5508 2.14844 17.1055 1.52344C15.6602 0.898438 14.1211 0.585938 12.4883 0.585938C10.8555 0.585938 9.31641 0.898438 7.87109 1.52344C6.43359 2.14844 5.16406 3.01172 4.0625 4.11328C2.96875 5.21484 2.10938 6.48828 1.48438 7.93359C0.859375 9.37109 0.546875 10.9062 0.546875 12.5391C0.546875 14.1719 0.859375 15.7109 1.48438 17.1562C2.10938 18.5938 2.97266 19.8633 4.07422 20.9648C5.17578 22.0664 6.44531 22.9297 7.88281 23.5547C9.32812 24.1797 10.8672 24.4922 12.5 24.4922ZM11.1875 18.2578C10.9844 18.2578 10.8008 18.2148 10.6367 18.1289C10.4727 18.043 10.3125 17.8984 10.1562 17.6953L7.21484 14.0859C7.12891 13.9688 7.05859 13.8477 7.00391 13.7227C6.95703 13.5898 6.93359 13.457 6.93359 13.3242C6.93359 13.0586 7.02344 12.832 7.20312 12.6445C7.38281 12.4492 7.60547 12.3516 7.87109 12.3516C8.04297 12.3516 8.19531 12.3867 8.32812 12.457C8.46875 12.5273 8.61328 12.6602 8.76172 12.8555L11.1406 15.9258L16.1445 7.88672C16.3633 7.52734 16.6445 7.34766 16.9883 7.34766C17.2383 7.34766 17.4648 7.42969 17.668 7.59375C17.8711 7.75 17.9727 7.96484 17.9727 8.23828C17.9727 8.37109 17.9414 8.50391 17.8789 8.63672C17.8164 8.76953 17.75 8.89453 17.6797 9.01172L12.1719 17.6953C12.0469 17.8828 11.9023 18.0234 11.7383 18.1172C11.5742 18.2109 11.3906 18.2578 11.1875 18.2578Z" fill="white"/>
</svg>
