<svg width="96" height="96" viewBox="0 0 96 96" fill="none" xmlns="http://www.w3.org/2000/svg">
<rect width="96" height="96" rx="48" fill="url(#paint0_linear_4_2911)"/>
<path fill-rule="evenodd" clip-rule="evenodd" d="M21.729 47.4909C35.722 41.3943 45.0529 37.3751 49.7216 35.4333C63.0517 29.8888 65.8216 28.9257 67.6269 28.8939C68.024 28.8869 68.9119 28.9853 69.4869 29.452C69.9726 29.846 70.1062 30.3783 70.1701 30.7519C70.234 31.1254 70.3136 31.9765 70.2504 32.6415C69.528 40.2314 66.4023 58.6501 64.8122 67.151C64.1393 70.748 62.8145 71.9541 61.5318 72.0721C58.7444 72.3286 56.6277 70.23 53.9279 68.4602C49.7033 65.6909 47.3167 63.967 43.2159 61.2647C38.4768 58.1417 41.549 56.4253 44.2498 53.6201C44.9566 52.886 57.2382 41.715 57.4759 40.7016C57.5056 40.5748 57.5332 40.1024 57.2525 39.8529C56.9719 39.6035 56.5576 39.6888 56.2587 39.7566C55.835 39.8528 49.0861 44.3136 36.012 53.1389C34.0964 54.4544 32.3612 55.0953 30.8066 55.0617C29.0928 55.0247 25.796 54.0927 23.3452 53.296C20.3392 52.3189 17.9501 51.8022 18.1581 50.1428C18.2665 49.2784 19.4568 48.3944 21.729 47.4909Z" fill="white"/>
<defs>
<linearGradient id="paint0_linear_4_2911" x1="48" y1="0" x2="48" y2="95.288" gradientUnits="userSpaceOnUse">
<stop stop-color="#2AABEE"/>
<stop offset="1" stop-color="#229ED9"/>
</linearGradient>
</defs>
</svg>
